<svg xmlns="http://www.w3.org/2000/svg" xmlns:xlink="http://www.w3.org/1999/xlink" width="67.782" height="51.132" viewBox="0 0 67.782 51.132"><defs><linearGradient id="a" x1="-0.119" y1="0.394" x2="0.881" y2="0.394" gradientUnits="objectBoundingBox"><stop offset="0" stop-color="#fd4136"/><stop offset="0.911" stop-color="#ff9e23"/></linearGradient></defs><path d="M572.346,697.065c-.029,0-.058,0-.086,0a5.984,5.984,0,0,1-5.888-5.026l-5.575-32.3L556.1,682.477a6.349,6.349,0,0,1-6.348,5.173h0a6.351,6.351,0,0,1-6.352-5.17l-1.551-7.491a1.331,1.331,0,0,0-1.3-1.056,2.58,2.58,0,1,1,0-5.161,6.52,6.52,0,0,1,6.352,5.166l1.551,7.495a1.327,1.327,0,0,0,2.6,0l5.175-25.077a4.7,4.7,0,0,1,4.686-3.755,4.649,4.649,0,0,1,4.56,3.9l5.981,34.653a.816.816,0,0,0,.874.747.827.827,0,0,0,.893-.72l8.317-41.473a4.789,4.789,0,0,1,4.675-3.781,4.65,4.65,0,0,1,4.578,3.892l5.747,32.522a2.58,2.58,0,1,1-5.081.9l-5.33-30.167L578.281,692.2A5.982,5.982,0,0,1,572.346,697.065Zm-37.575-25.584a2.988,2.988,0,1,1-2.988-2.988A2.988,2.988,0,0,1,534.771,671.481Z" transform="translate(-528.796 -645.933)" fill="url(#a)"/></svg>