<svg xmlns="http://www.w3.org/2000/svg" width="19.452" height="24.487" viewBox="0 0 19.452 24.487">
  <path id="apple" d="M17.075,2A4.592,4.592,0,0,1,16.04,5.448a3.871,3.871,0,0,1-3.218,1.609,4.324,4.324,0,0,1,1.034-3.333A5.257,5.257,0,0,1,17.075,2Zm3.678,20a17.76,17.76,0,0,0,1.379-2.529,4.551,4.551,0,0,1-.575-8.275,5.011,5.011,0,0,0-4.023-2.069,6.93,6.93,0,0,0-2.414.46,4.056,4.056,0,0,1-1.609.345,5.41,5.41,0,0,1-1.839-.46,6.721,6.721,0,0,0-2.184-.46,5.219,5.219,0,0,0-4.368,2.643c-1.494,2.3-1.264,6.781,1.149,10.459,1.034,1.379,2.184,2.873,3.678,2.873a4.775,4.775,0,0,0,1.494-.345,5.01,5.01,0,0,1,2.069-.46,4.59,4.59,0,0,1,2.069.46,2.875,2.875,0,0,0,1.494.345C18.684,24.987,19.833,23.263,20.752,22Z" transform="translate(-3.43 -1.25)" fill="none" stroke="#9e9e9e" stroke-linecap="round" stroke-linejoin="round" stroke-miterlimit="10" stroke-width="1.5" fill-rule="evenodd"/>
</svg>
