<svg xmlns="http://www.w3.org/2000/svg" width="15.809" height="18.813" viewBox="0 0 15.809 18.813">
  <path id="Icon_awesome-apple" data-name="Icon awesome-apple" d="M13.5,12.191A3.921,3.921,0,0,1,15.6,8.63a4.513,4.513,0,0,0-3.557-1.873c-1.491-.118-3.121.869-3.717.869-.63,0-2.075-.827-3.209-.827C2.772,6.836.281,8.668.281,12.393a10.468,10.468,0,0,0,.6,3.41c.538,1.541,2.478,5.321,4.5,5.258,1.058-.025,1.806-.752,3.184-.752,1.336,0,2.029.752,3.209.752,2.041-.029,3.8-3.465,4.309-5.011a4.163,4.163,0,0,1-2.591-3.86Zm-2.377-6.9A3.956,3.956,0,0,0,12.129,2.25,4.453,4.453,0,0,0,9.278,3.716,4.018,4.018,0,0,0,8.2,6.736,3.527,3.527,0,0,0,11.121,5.295Z" transform="translate(-0.281 -2.25)" fill="#888"/>
</svg>
