<svg xmlns="http://www.w3.org/2000/svg" xmlns:xlink="http://www.w3.org/1999/xlink" width="138.918" height="51.132" viewBox="0 0 138.918 51.132">
  <defs>
    <linearGradient id="linear-gradient" x1="-0.119" y1="0.394" x2="0.881" y2="0.394" gradientUnits="objectBoundingBox">
      <stop offset="0" stop-color="#fd4136"/>
      <stop offset="0.911" stop-color="#ff9e23"/>
    </linearGradient>
    <linearGradient id="linear-gradient-2" x1="0.461" y1="-0.421" x2="0.551" y2="1.956" gradientUnits="objectBoundingBox">
      <stop offset="0.043" stop-color="#fff"/>
      <stop offset="0.298"/>
    </linearGradient>
  </defs>
  <g id="Group_52" data-name="Group 52" transform="translate(-49.555 -25)">
    <path id="Path_49" data-name="Path 49" d="M572.346,697.065c-.029,0-.058,0-.086,0a5.984,5.984,0,0,1-5.888-5.026l-5.575-32.3L556.1,682.477a6.349,6.349,0,0,1-6.348,5.173h0a6.351,6.351,0,0,1-6.352-5.17l-1.551-7.491a1.331,1.331,0,0,0-1.3-1.056,2.58,2.58,0,1,1,0-5.161,6.52,6.52,0,0,1,6.352,5.166l1.551,7.495a1.327,1.327,0,0,0,2.6,0l5.175-25.077a4.7,4.7,0,0,1,4.686-3.755,4.649,4.649,0,0,1,4.56,3.9l5.981,34.653a.816.816,0,0,0,.874.747.827.827,0,0,0,.893-.72l8.317-41.473a4.789,4.789,0,0,1,4.675-3.781,4.65,4.65,0,0,1,4.578,3.892l5.747,32.522a2.58,2.58,0,1,1-5.081.9l-5.33-30.167L578.281,692.2A5.982,5.982,0,0,1,572.346,697.065Zm-37.575-25.584a2.988,2.988,0,1,1-2.988-2.988A2.988,2.988,0,0,1,534.771,671.481Z" transform="translate(-479.241 -620.933)" fill="url(#linear-gradient)"/>
    <g id="Group_17" data-name="Group 17" transform="translate(122.861 37.432)">
      <path id="Path_50" data-name="Path 50" d="M1149.148,817.9v-.285a7.6,7.6,0,0,1-5.21,2.3c-4.742,0-7.938-4.01-7.938-9.444V802.7a2.025,2.025,0,0,1,4.05,0v7.816c.021,3.236,1.649,5.373,4.356,5.373s4.742-2.259,4.742-5.272v-7.856a2.007,2.007,0,0,1,2.015-2.015,2.037,2.037,0,0,1,2.036,2.015V817.9a2.063,2.063,0,0,1-2.076,2.035A1.99,1.99,0,0,1,1149.148,817.9Z" transform="translate(-1136 -794.066)"/>
      <path id="Path_51" data-name="Path 51" d="M1315.377,816.53a2.271,2.271,0,0,1-.305-1.12,1.794,1.794,0,0,1,1.852-1.791,2.186,2.186,0,0,1,1.832.957,3.817,3.817,0,0,0,3.562,1.832c1.486,0,2.931-.753,2.931-2.035,0-1.567-1.934-2.076-3.3-2.483-3.256-1.14-6.411-2.5-6.411-5.76,0-3.419,3.216-5.6,6.7-5.6,2.279,0,4.986.9,5.923,2.727a2.142,2.142,0,0,1,.224.875,1.805,1.805,0,0,1-1.771,1.73.992.992,0,0,1-.672-.143,5.367,5.367,0,0,0-3.541-1.628c-1.649,0-2.788.611-2.788,1.913,0,1.323,1.465,1.872,3.46,2.483,3.236,1.018,6.106,2.239,6.106,5.719,0,3.236-2.911,5.76-6.839,5.76C1319.774,819.969,1316.68,818.952,1315.377,816.53Z" transform="translate(-1293.453 -793.917)"/>
      <path id="Path_52" data-name="Path 52" d="M1466.627,748a2.259,2.259,0,1,1,2.259,2.239A2.254,2.254,0,0,1,1466.627,748Zm.244,21.554V754.41a2.059,2.059,0,0,1,2.056-2.035,1.994,1.994,0,0,1,1.994,2.035v15.143a2.006,2.006,0,0,1-2.015,2.015A2.037,2.037,0,0,1,1466.871,769.553Z" transform="translate(-1426.712 -745.74)"/>
      <path id="Path_53" data-name="Path 53" d="M1537.363,810.362v-.081a9.763,9.763,0,0,1,9.81-9.749,9.254,9.254,0,0,1,6.615,2.605,2.392,2.392,0,0,1,.733,1.669,2.071,2.071,0,0,1-1.995,2.015,3.1,3.1,0,0,1-1.852-.875,5.547,5.547,0,0,0-3.745-1.3,5.64,5.64,0,0,0-5.415,5.6v.061a5.568,5.568,0,0,0,5.516,5.556,5.432,5.432,0,0,0,3.644-1.3,3.053,3.053,0,0,1,1.832-.835,2.053,2.053,0,0,1,2.015,1.974,2.393,2.393,0,0,1-.733,1.669,9.255,9.255,0,0,1-6.615,2.605A9.657,9.657,0,0,1,1537.363,810.362Z" transform="translate(-1488.908 -793.917)"/>
    </g>
    <path id="Path_54" data-name="Path 54" d="M667.693,685.893a1.676,1.676,0,0,0,1.358-1.941L663.3,651.428a3.758,3.758,0,0,0-3.69-3.146,3.882,3.882,0,0,0-3.787,3.056l-8.317,41.471a1.727,1.727,0,0,1-1.737,1.445h-.055a1.706,1.706,0,0,1-1.752-1.493l-5.982-34.657a3.8,3.8,0,0,0-7.469-.122l-5.175,25.078a2.231,2.231,0,0,1-4.369,0l-1.551-7.495a5.612,5.612,0,0,0-5.467-4.445,1.676,1.676,0,0,0,0,3.353,2.237,2.237,0,0,1,2.185,1.778l1.551,7.49a5.465,5.465,0,0,0,5.463,4.449h0a5.464,5.464,0,0,0,5.467-4.452l4.693-22.736a.9.9,0,0,1,.885-.721h.015a.9.9,0,0,1,.876.75l5.575,32.3a5.092,5.092,0,0,0,5.009,4.276h.074a5.1,5.1,0,0,0,5.048-4.139l7.845-39.123a.9.9,0,0,1,1.776.021l5.33,30.167A1.682,1.682,0,0,0,667.693,685.893Z" transform="translate(-552.644 -622.153)" fill="url(#linear-gradient-2)" style="mix-blend-mode: screen;isolation: isolate"/>
  </g>
</svg>
