<svg xmlns="http://www.w3.org/2000/svg" width="20.049" height="19.229" viewBox="0 0 20.049 19.229">
  <g id="Icon_feather-shopping-cart" data-name="Icon feather-shopping-cart" transform="translate(1 1)">
    <path id="Path_181" data-name="Path 181" d="M13.641,30.82a.82.82,0,1,1-.82-.82A.82.82,0,0,1,13.641,30.82Z" transform="translate(-6.257 -14.412)" fill="none" stroke="#fff" stroke-linecap="round" stroke-linejoin="round" stroke-width="2"/>
    <path id="Path_182" data-name="Path 182" d="M30.141,30.82a.82.82,0,1,1-.82-.82A.82.82,0,0,1,30.141,30.82Z" transform="translate(-13.732 -14.412)" fill="none" stroke="#fff" stroke-linecap="round" stroke-linejoin="round" stroke-width="2"/>
    <path id="Path_183" data-name="Path 183" d="M1.5,1.5H4.782l2.2,10.985a1.641,1.641,0,0,0,1.641,1.321H16.6a1.641,1.641,0,0,0,1.641-1.321L19.549,5.6H5.6" transform="translate(-1.5 -1.5)" fill="none" stroke="#fff" stroke-linecap="round" stroke-linejoin="round" stroke-width="2"/>
  </g>
</svg>
