<svg xmlns="http://www.w3.org/2000/svg" width="19.921" height="18.11" viewBox="0 0 19.921 18.11">
  <g id="Path_184" data-name="Path 184" fill="none">
    <path d="M9.961,18.11C4.6,14.494,1.8,11.2.644,8.451-2.442,1.073,6.373-2.455,9.961,1.9c3.588-4.356,12.4-.827,9.317,6.551C18.125,11.2,15.316,14.494,9.961,18.11Z" stroke="none"/>
    <path d="M 9.960628509521484 15.67476081848145 C 14.79567337036133 12.21161842346191 16.69566917419434 9.439842224121094 17.43214797973633 7.679667949676514 C 18.09869766235352 6.086058139801025 18.08212852478027 4.689568042755127 17.38423919677734 3.641187906265259 C 16.72055816650391 2.644207954406738 15.44116878509521 1.999997973442078 14.12483882904053 1.999997973442078 C 13.50667858123779 1.999997973442078 12.34424877166748 2.152237892150879 11.50429821014404 3.171867847442627 L 9.960628509521484 5.045767784118652 L 8.416958808898926 3.171867847442627 C 7.577008724212646 2.152237892150879 6.414578437805176 1.999997973442078 5.7964186668396 1.999997973442078 C 4.480268478393555 1.999997973442078 3.200958490371704 2.644268035888672 2.537218570709229 3.641347885131836 C 1.839268565177917 4.689807891845703 1.822638511657715 6.086237907409668 2.489018440246582 7.67943811416626 C 3.225582122802734 9.439826011657715 5.125583648681641 12.2116174697876 9.960628509521484 15.67476081848145 M 9.960628509521484 18.11022758483887 C 4.6048583984375 14.49420833587646 1.795978546142578 11.20460796356201 0.6440085172653198 8.451408386230469 C -2.442041397094727 1.073198199272156 6.372649192810059 -2.455292224884033 9.960628509521484 1.900227904319763 C 13.54861068725586 -2.455292224884033 22.3632984161377 1.073197960853577 19.27724838256836 8.451408386230469 C 18.12527847290039 11.20460796356201 15.31639862060547 14.49420833587646 9.960628509521484 18.11022758483887 Z" stroke="none" fill="#707070"/>
  </g>
</svg>
