<svg xmlns="http://www.w3.org/2000/svg" width="36" height="36" viewBox="0 0 36 36">
  <g id="Group_27096" data-name="Group 27096" transform="translate(-1561 -360)">
    <g id="Path_32687" data-name="Path 32687" transform="translate(1569.156 370.391)" fill="none" stroke-linecap="round" stroke-linejoin="round">
      <path d="M9.743,17.659C4.5,14.133,1.757,10.925.63,8.241c-3.019-7.194,5.6-10.635,9.113-6.388,3.509-4.247,12.131-.806,9.113,6.388C17.729,10.925,14.981,14.133,9.743,17.659Z" stroke="none"/>
      <path d="M 9.742671966552734 15.83799743652344 C 14.75604057312012 12.31071090698242 16.71574592590332 9.462700843811035 17.47225761413574 7.660298824310303 C 18.18345642089844 5.965249061584473 18.15457725524902 4.460468769073486 17.38875579833984 3.30863881111145 C 16.64700698852539 2.193028926849365 15.27791690826416 1.499998927116394 13.81576633453369 1.499998927116394 C 12.63204669952393 1.499998927116394 11.59616661071777 1.964648962020874 10.89896678924561 2.808348894119263 C 10.61400699615479 3.153188943862915 10.19000720977783 3.35283899307251 9.742676734924316 3.35283899307251 C 9.295336723327637 3.35283899307251 8.871346473693848 3.153178930282593 8.586386680603027 2.808348894119263 C 7.889186859130859 1.964648962020874 6.853316783905029 1.499998927116394 5.669586658477783 1.499998927116394 C 4.207616806030273 1.499998927116394 2.838596820831299 2.193089008331299 2.096786737442017 3.308798789978027 C 1.330906748771667 4.460699081420898 1.301976680755615 5.965428829193115 2.013026714324951 7.660129070281982 C 2.769603729248047 9.462692260742188 4.729302883148193 12.31069469451904 9.742671966552734 15.83799743652344 M 9.742676734924316 17.65859985351562 C 4.504106521606445 14.13275909423828 1.75667679309845 10.92518901824951 0.6299167275428772 8.240649223327637 C -2.38860297203064 1.04642927646637 6.233207702636719 -2.394061803817749 9.742676734924316 1.85283887386322 C 13.25214862823486 -2.394062042236328 21.87395668029785 1.046429634094238 18.85543632507324 8.240649223327637 C 17.72867584228516 10.92518901824951 14.98125648498535 14.13275909423828 9.742676734924316 17.65859985351562 Z" stroke="none" fill="#424241"/>
    </g>
    <g id="Ellipse_32" data-name="Ellipse 32" transform="translate(1561 360)" fill="none" stroke="#424241" stroke-width="1.5">
      <circle cx="18" cy="18" r="18" stroke="none"/>
      <circle cx="18" cy="18" r="17.25" fill="none"/>
    </g>
  </g>
</svg>
