<svg xmlns="http://www.w3.org/2000/svg" width="40" height="40" viewBox="0 0 40 40">
  <g id="Group_212" data-name="Group 212" transform="translate(-1268 -460)">
    <circle id="Ellipse_24" data-name="Ellipse 24" cx="20" cy="20" r="20" transform="translate(1268 460)" fill="#9e9e9e"/>
    <g id="Path_180" data-name="Path 180" transform="translate(1278 471)" fill="none">
      <path d="M10.433,18.909C4.823,15.133,1.881,11.7.675,8.824c-3.232-7.7,6-11.388,9.758-6.84,3.758-4.548,12.99-.864,9.758,6.84C18.984,11.7,16.042,15.133,10.433,18.909Z" stroke="none"/>
      <path d="M 10.43253421783447 16.47710990905762 C 15.55653667449951 12.82948207855225 17.5676097869873 9.905604362487793 18.34630393981934 8.050353050231934 C 19.054443359375 6.362603187561035 19.03569412231445 4.879353046417236 18.29209327697754 3.760953187942505 C 17.58085441589355 2.691213369369507 16.20778465270996 2.000003337860107 14.79404449462891 2.000003337860107 C 14.12919425964355 2.000003337860107 12.87879467010498 2.163443326950073 11.9742546081543 3.258053302764893 L 10.43253421783447 5.123733043670654 L 8.890813827514648 3.258053302764893 C 7.986274242401123 2.163443326950073 6.735864162445068 2.000003337860107 6.071024417877197 2.000003337860107 C 4.657474040985107 2.000003337860107 3.284494161605835 2.691283226013184 2.573184251785278 3.761113166809082 C 1.829524159431458 4.879593372344971 1.810704231262207 6.362793445587158 2.51867413520813 8.05012321472168 C 3.297453641891479 9.90558910369873 5.308531284332275 12.82948112487793 10.43253421783447 16.47710990905762 M 10.43253421783447 18.90897369384766 C 4.823024272918701 15.13346290588379 1.881064176559448 11.69877338409424 0.674524188041687 8.824152946472168 C -2.557735681533813 1.120523810386658 6.674563407897949 -2.563577175140381 10.43253421783447 1.98404324054718 C 14.19050121307373 -2.563575506210327 23.42280578613281 1.120522379875183 20.19054412841797 8.824152946472168 C 18.98400497436523 11.69877338409424 16.04204368591309 15.13346290588379 10.43253421783447 18.90897369384766 Z" stroke="none" fill="#fff"/>
    </g>
  </g>
</svg>
