<svg xmlns="http://www.w3.org/2000/svg" width="19.5" height="19.544" viewBox="0 0 19.5 19.544">
  <g id="google-play" transform="translate(-1.25 -1.25)">
    <path id="Path_207" data-name="Path 207" d="M20.63,12.49l-4.05,2.07L13.7,11.68,16.58,8.8l4.05,1.98A.946.946,0,0,1,20.63,12.49Z" transform="translate(-1.17 -0.679)" fill="none" stroke="#9e9e9e" stroke-linecap="round" stroke-linejoin="round" stroke-miterlimit="10" stroke-width="1.5"/>
    <path id="Path_208" data-name="Path 208" d="M15.41,8.121,12.53,11l-8.64,8.64-.54.27a.937.937,0,0,1-1.35-.9V2.991a.968.968,0,0,1,1.35-.9Z" transform="translate(0 0)" fill="none" stroke="#9e9e9e" stroke-linecap="round" stroke-linejoin="round" stroke-miterlimit="10" stroke-width="1.5"/>
    <path id="Path_209" data-name="Path 209" d="M15.619,14.88,4.1,20.64,12.739,12Z" transform="translate(-0.21 -0.999)" fill="none" stroke="#9e9e9e" stroke-linecap="round" stroke-linejoin="round" stroke-miterlimit="10" stroke-width="1.5"/>
    <path id="Path_210" data-name="Path 210" d="M12.739,11.04,4.1,2.4" transform="translate(-0.21 -0.039)" fill="none" stroke="#9e9e9e" stroke-linecap="round" stroke-linejoin="round" stroke-miterlimit="10" stroke-width="1.5"/>
  </g>
</svg>
