<svg xmlns="http://www.w3.org/2000/svg" width="19" height="19" viewBox="0 0 19 19">
  <path id="Home" d="M19.584,9.528a.731.731,0,0,0-1.462,0Zm-14.206,0a.731.731,0,0,0-1.462,0ZM14.2,20.234l-.168-.711Zm-4.9,0,.168-.711Zm5.2-15.29-.519.515ZM20,11.514a.731.731,0,0,0,1.037-1.03ZM8.994,4.943l.519.515ZM2.462,10.485A.731.731,0,0,0,3.5,11.514Zm7.065,7.424-.718-.135h0Zm.019-.1.718.135h0Zm4.408,0-.718.135h0Zm.019.1.718-.135h0Zm-.282,2.174-.66-.314h0Zm-.774-.075a.731.731,0,1,0,1.32.628Zm-3.108.075-.66.314h0Zm-.546.553a.731.731,0,0,0,1.32-.628Zm1.864-4.557-.2-.7h0Zm1.245,0,.2-.7h0Zm5.75-6.551V14.32h1.462V9.528ZM5.378,14.32V9.528H3.916V14.32Zm8.653,5.2a9.919,9.919,0,0,1-4.562,0l-.336,1.422a11.38,11.38,0,0,0,5.234,0Zm-4.562,0a5.335,5.335,0,0,1-4.091-5.2H3.916a6.8,6.8,0,0,0,5.217,6.625Zm4.9,1.422a6.8,6.8,0,0,0,5.217-6.625H18.122a5.335,5.335,0,0,1-4.092,5.2Zm-.38-15.487L20,11.514l1.037-1.03L15.024,4.428ZM8.476,4.428,2.462,10.485,3.5,11.514,9.513,5.458Zm6.549,0a18.385,18.385,0,0,0-1.636-1.536A2.647,2.647,0,0,0,11.75,2.25V3.712a1.225,1.225,0,0,1,.748.339,17.322,17.322,0,0,1,1.489,1.407ZM9.513,5.458A17.325,17.325,0,0,1,11,4.051a1.225,1.225,0,0,1,.748-.339V2.25a2.647,2.647,0,0,0-1.639.642A18.388,18.388,0,0,0,8.476,4.428Zm.732,12.585.019-.1-1.436-.27-.019.1Zm2.991-.1.019.1,1.436-.27-.019-.1Zm-.205,1.826-.114.239,1.32.628.114-.239ZM9.149,20.4l.114.239,1.32-.628-.114-.239Zm4.105-2.354a2.811,2.811,0,0,1-.224,1.725l1.32.628a4.272,4.272,0,0,0,.341-2.623Zm-4.446-.27A4.272,4.272,0,0,0,9.149,20.4l1.32-.628a2.81,2.81,0,0,1-.224-1.725Zm2.514-.991a1.6,1.6,0,0,1,.854,0l.391-1.408a3.058,3.058,0,0,0-1.636,0Zm3.35.89a2.946,2.946,0,0,0-2.1-2.3l-.391,1.408a1.485,1.485,0,0,1,1.059,1.16Zm-4.408.27a1.485,1.485,0,0,1,1.059-1.16l-.391-1.408a2.946,2.946,0,0,0-2.1,2.3Z" transform="translate(-2.25 -2.25)" fill="#424241"/>
</svg>
