<svg xmlns="http://www.w3.org/2000/svg" width="18.874" height="16.514" viewBox="0 0 18.874 16.514">
  <g id="Path_211" data-name="Path 211" transform="translate(0)" fill="none" stroke-linecap="round">
    <path d="M9.437,16.514C4.363,13.217,1.7,10.217.61,7.707-2.314.979,6.037-2.239,9.437,1.733c3.4-3.972,11.75-.754,8.827,5.974C17.172,10.217,14.511,13.217,9.437,16.514Z" stroke="none"/>
    <path d="M 9.436771392822266 13.49857807159424 C 13.65824127197266 10.53382682800293 15.32390594482422 8.197787284851074 15.97054100036621 6.710277557373047 C 16.49275207519531 5.508597850799561 16.50979232788086 4.521517753601074 16.02120208740234 3.776467800140381 C 15.51269149780273 3.00103759765625 14.476731300354 2.499997615814209 13.38197135925293 2.499997615814209 C 12.89227104187012 2.499997615814209 11.97531127929688 2.611517667770386 11.33610153198242 3.358367681503296 L 9.436771392822266 5.577537536621094 L 7.537441253662109 3.358367681503296 C 6.898221492767334 2.611517667770386 5.981271266937256 2.499997615814209 5.491571426391602 2.499997615814209 C 4.396981239318848 2.499997615814209 3.361091375350952 3.001107692718506 2.852521419525146 3.776627779006958 C 2.363881349563599 4.521737575531006 2.380871295928955 5.508767604827881 2.902871370315552 6.709987640380859 C 3.549624919891357 8.197760581970215 5.215301036834717 10.53382396697998 9.436771392822266 13.49857807159424 M 9.436771392822266 16.51434707641602 C 4.36268138885498 13.21696758270264 1.701521396636963 10.21724796295166 0.610141396522522 7.706667900085449 C -2.313608646392822 0.9786277413368225 6.037490844726562 -2.238932132720947 9.436771392822266 1.732777714729309 C 12.83605003356934 -2.23893141746521 21.1871509552002 0.9786269068717957 18.26340103149414 7.706667900085449 C 17.17202186584473 10.21724796295166 14.51086139678955 13.21696758270264 9.436771392822266 16.51434707641602 Z" stroke="none" fill="#424241"/>
  </g>
</svg>
