<svg xmlns="http://www.w3.org/2000/svg" width="18.5" height="18.509" viewBox="0 0 18.5 18.509">
  <path id="Icon_awesome-music" data-name="Icon awesome-music" d="M17,1.062A1.062,1.062,0,0,0,15.618.049L4.994,3.187A1.062,1.062,0,0,0,4.25,4.2v8.68a4.593,4.593,0,0,0-1.062-.13C1.427,12.749,0,13.7,0,14.874S1.427,17,3.187,17s3.187-.951,3.187-2.125V7.115l8.5-2.491v6.13a4.593,4.593,0,0,0-1.062-.13c-1.76,0-3.187.951-3.187,2.125s1.427,2.125,3.187,2.125S17,13.923,17,12.749V1.062Z" transform="translate(0.75 0.759)" fill="#fff" stroke="#31bdfc" stroke-width="1.5"/>
</svg>
