<svg xmlns="http://www.w3.org/2000/svg" width="23.817" height="22.642" viewBox="0 0 23.817 22.642">
  <g id="pause1" transform="translate(-2.25 -2.25)">
    <path id="Path_32696" data-name="Path 32696" d="M10.65,21.922V5.22C10.65,3.634,10.08,3,8.64,3H5.01C3.57,3,3,3.634,3,5.22v16.7c0,1.586.57,2.22,2.01,2.22H8.64C10.08,24.142,10.65,23.508,10.65,21.922Z" fill="#fff" stroke="#fff" stroke-linecap="round" stroke-linejoin="round" stroke-width="1.5"/>
    <path id="Path_32697" data-name="Path 32697" d="M21,21.922V5.22C21,3.634,20.43,3,18.99,3H15.36c-1.43,0-2.01.634-2.01,2.22v16.7c0,1.586.57,2.22,2.01,2.22h3.63C20.43,24.142,21,23.508,21,21.922Z" transform="translate(4.316)" fill="#fff" stroke="#fff" stroke-linecap="round" stroke-linejoin="round" stroke-width="1.5"/>
  </g>
</svg>
