<svg xmlns="http://www.w3.org/2000/svg" width="20.182" height="16.838" viewBox="0 0 20.182 16.838">
  <g id="Icon_feather-users" data-name="Icon feather-users" transform="translate(-0.75 -3.698)">
    <path id="Path_195" data-name="Path 195" d="M15.087,27.6V25.9a3.4,3.4,0,0,0-3.4-3.4H4.9a3.4,3.4,0,0,0-3.4,3.4v1.7" transform="translate(0 -7.81)" fill="none" stroke="#fff" stroke-linecap="round" stroke-linejoin="round" stroke-width="1.5"/>
    <path id="Path_196" data-name="Path 196" d="M14.294,7.9a3.4,3.4,0,1,1-3.4-3.4A3.4,3.4,0,0,1,14.294,7.9Z" transform="translate(-2.603)" fill="none" stroke="#fff" stroke-linecap="round" stroke-linejoin="round" stroke-width="1.5"/>
    <path id="Path_197" data-name="Path 197" d="M32.548,27.68v-1.7A3.4,3.4,0,0,0,30,22.7" transform="translate(-12.365 -7.894)" fill="none" stroke="#fff" stroke-linecap="round" stroke-linejoin="round" stroke-width="1.5"/>
    <path id="Path_198" data-name="Path 198" d="M24,4.7a3.4,3.4,0,0,1,0,6.581" transform="translate(-9.762 -0.085)" fill="none" stroke="#fff" stroke-linecap="round" stroke-linejoin="round" stroke-width="1.5"/>
  </g>
</svg>
