<svg xmlns="http://www.w3.org/2000/svg" width="38" height="38" viewBox="0 0 38 38">
  <path id="Subtraction_1" data-name="Subtraction 1" d="M-3696-177a18.877,18.877,0,0,1-13.435-5.565A18.876,18.876,0,0,1-3715-196a18.876,18.876,0,0,1,5.565-13.435A18.877,18.877,0,0,1-3696-215a18.875,18.875,0,0,1,13.435,5.565A18.875,18.875,0,0,1-3677-196a18.875,18.875,0,0,1-5.565,13.435A18.875,18.875,0,0,1-3696-177Zm-1.552-25.644a2.005,2.005,0,0,0-2,2v8.015a2,2,0,0,0,2,2,1.981,1.981,0,0,0,.963-.25l7.291-4.007a1.974,1.974,0,0,0,1.036-1.753,1.973,1.973,0,0,0-1.036-1.751l-7.291-4.008A1.975,1.975,0,0,0-3697.552-202.644Z" transform="translate(3715 215)" fill="#fff"/>
</svg>
