<svg xmlns="http://www.w3.org/2000/svg" width="23.788" height="25.202" viewBox="0 0 23.788 25.202">
  <g id="Polygon_4" data-name="Polygon 4" transform="matrix(0.259, -0.966, 0.966, 0.259, 1.837, 19.224)" fill="#fff" stroke-linecap="square" stroke-linejoin="round">
    <path d="M 16.01424980163574 17.89252090454102 L 14.14097023010254 16.62047004699707 L 9 13.12948417663574 L 3.859019994735718 16.62047004699707 L 1.985730051994324 17.89252090454102 L 2.7292799949646 15.7537202835083 L 4.664953231811523 10.18576431274414 L -0.4213300049304962 6.731929779052734 L -2.439549922943115 5.361460208892822 L 0 5.361460208892822 L 6.342094898223877 5.361460208892822 L 8.291589736938477 -0.2462799996137619 L 9 -2.284029960632324 L 9.708410263061523 -0.2462799996137619 L 11.65790462493896 5.361460208892822 L 18 5.361460208892822 L 20.43955039978027 5.361460208892822 L 18.42132949829102 6.731929779052734 L 13.33504581451416 10.18576526641846 L 15.27070999145508 15.7537202835083 L 16.01424980163574 17.89252090454102 Z" stroke="none"/>
    <path d="M 9 0 L 6.87539005279541 6.111459732055664 L 0 6.111459732055664 L 5.562310218811035 9.888540267944336 L 3.437689781188965 16 L 9 12.22290992736816 L 14.56229972839355 16 L 12.43768978118896 9.888540267944336 L 18 6.111459732055664 L 11.12460994720459 6.111459732055664 L 9 0 M 9 -1.5 C 9.638569831848145 -1.5 10.20713996887207 -1.095710754394531 10.41683006286621 -0.4925498962402344 L 12.19120597839355 4.611459732055664 L 18 4.611459732055664 C 18.65863990783691 4.611459732055664 19.24021911621094 5.041110038757324 19.43376922607422 5.670669555664062 C 19.6273193359375 6.300230026245117 19.38754081726074 6.982390403747559 18.84266090393066 7.352399826049805 L 14.23240756988525 10.48298645019531 L 15.97912979125977 15.50745010375977 C 16.19148063659668 16.11828994750977 15.98843955993652 16.79645919799805 15.47534942626953 17.19009971618652 C 14.96226024627686 17.583740234375 14.2546501159668 17.6042308807373 13.71963977813721 17.24094009399414 L 8.999999046325684 14.03605937957764 L 4.280349731445312 17.24094009399414 C 3.745339393615723 17.6042308807373 3.037729263305664 17.583740234375 2.524640083312988 17.19009971618652 C 2.011549949645996 16.79644966125488 1.808509826660156 16.1182804107666 2.020870208740234 15.50745010375977 L 3.767599105834961 10.48299121856689 L -0.8426609039306641 7.352399826049805 C -1.387540817260742 6.982390403747559 -1.6273193359375 6.300230026245117 -1.433769226074219 5.670669555664062 C -1.240219116210938 5.041110038757324 -0.6586399078369141 4.611459732055664 0 4.611459732055664 L 5.808794021606445 4.611459732055664 L 7.583169937133789 -0.4925498962402344 C 7.79286003112793 -1.095710754394531 8.361430168151855 -1.5 9 -1.5 Z" stroke="none" fill="#424241"/>
  </g>
</svg>
