<svg xmlns="http://www.w3.org/2000/svg" width="19.971" height="19.953" viewBox="0 0 19.971 19.953">
  <g id="tag" transform="translate(-2.014 -2.022)">
    <path id="Path_205" data-name="Path 205" d="M4.17,15.3,8.7,19.83a4.78,4.78,0,0,0,6.75,0l4.39-4.39a4.78,4.78,0,0,0,0-6.75L15.3,4.17a4.751,4.751,0,0,0-3.6-1.39l-5,.24A3.864,3.864,0,0,0,3.01,6.69l-.24,5A4.8,4.8,0,0,0,4.17,15.3Z" fill="none" stroke="#292d32" stroke-linecap="round" stroke-linejoin="round" stroke-width="1.5"/>
    <path id="Path_206" data-name="Path 206" d="M9.5,12A2.5,2.5,0,1,0,7,9.5,2.5,2.5,0,0,0,9.5,12Z" fill="none" stroke="#292d32" stroke-linecap="round" stroke-width="1.5"/>
  </g>
</svg>
