<svg xmlns="http://www.w3.org/2000/svg" width="17.754" height="14.42" viewBox="0 0 17.754 14.42">
  <path id="Icon_awesome-twitter" data-name="Icon awesome-twitter" d="M15.929,6.974c.011.158.011.315.011.473A10.282,10.282,0,0,1,5.588,17.8,10.283,10.283,0,0,1,0,16.167a7.527,7.527,0,0,0,.879.045A7.287,7.287,0,0,0,5.4,14.657a3.645,3.645,0,0,1-3.4-2.523,4.589,4.589,0,0,0,.687.056,3.848,3.848,0,0,0,.958-.124A3.639,3.639,0,0,1,.721,8.5V8.45a3.665,3.665,0,0,0,1.645.462A3.644,3.644,0,0,1,1.239,4.045a10.343,10.343,0,0,0,7.5,3.808,4.108,4.108,0,0,1-.09-.834,3.642,3.642,0,0,1,6.3-2.49,7.164,7.164,0,0,0,2.309-.879,3.629,3.629,0,0,1-1.6,2.005,7.294,7.294,0,0,0,2.1-.563,7.822,7.822,0,0,1-1.825,1.881Z" transform="translate(0 -3.381)" fill="#afafaf"/>
</svg>
