<svg xmlns="http://www.w3.org/2000/svg" width="19.5" height="17.75" viewBox="0 0 19.5 17.75">
  <g id="Icon_ionic-ios-volume-low" data-name="Icon ionic-ios-volume-low" transform="translate(1 1)">
    <path id="Path_73" data-name="Path 73" d="M19.61,10.238a1.089,1.089,0,0,0-.485-.113,1.127,1.127,0,0,0-.7.246l-4.584,3.691H10.125A1.128,1.128,0,0,0,9,15.188v5.625a1.128,1.128,0,0,0,1.125,1.125h3.712l4.584,3.691a1.142,1.142,0,0,0,.7.246,1.089,1.089,0,0,0,.485-.112,1.125,1.125,0,0,0,.64-1.013V11.25A1.109,1.109,0,0,0,19.61,10.238Z" transform="translate(-9 -10.125)" fill="none" stroke="#9e9e9e" stroke-width="2"/>
    <path id="Path_74" data-name="Path 74" d="M24.919,12.839a.828.828,0,0,0-1.181-.007.851.851,0,0,0-.007,1.2,5.644,5.644,0,0,1,1.6,3.98h0a5.669,5.669,0,0,1-1.6,3.98.851.851,0,0,0,.007,1.2.826.826,0,0,0,.584.246.837.837,0,0,0,.6-.253A7.338,7.338,0,0,0,27,18.014h-.014A7.322,7.322,0,0,0,24.919,12.839Z" transform="translate(-9 -10.125)" fill="#9e9e9e" stroke="#9e9e9e" stroke-width="1"/>
  </g>
</svg>
